# Blender v2.78 (sub 0) OBJ File: 'cf_base_us.blend'
# www.blender.org
mtllib base_n.mtl
o i_frame_Cube.002
v 1.000000 0.000000 -1.800000
v 1.000000 0.200000 -1.800000
v 2.000000 0.000000 -2.000000
v 2.000000 0.200000 -2.000000
v 1.000000 0.000000 -2.000000
v 1.000000 0.200000 -2.000000
v 1.800000 0.000000 -1.800000
v 1.800000 0.200000 -1.800000
v 1.800000 0.000000 -0.999843
v 2.000000 0.000000 -0.999843
v 2.000000 0.200000 -0.999843
v 1.800000 0.200000 -0.999843
v 1.000000 0.000000 1.800000
v 1.000000 0.200000 1.800000
v 2.000000 0.000000 1.999999
v 2.000000 0.200000 1.999999
v 1.000000 0.000000 2.000000
v 1.000000 0.200000 2.000000
v 1.800001 0.000000 1.799999
v 1.800001 0.200000 1.799999
v 1.800000 0.000000 0.999842
v 2.000000 0.000000 0.999842
v 2.000000 0.200000 0.999842
v 1.800000 0.200000 0.999842
v -1.000000 0.000000 -1.800000
v -1.000000 0.200000 -1.800000
v -2.000001 0.000000 -2.000000
v -2.000001 0.200000 -2.000000
v -1.000001 0.000000 -2.000000
v -1.000001 0.200000 -2.000000
v -1.800001 0.000000 -1.800000
v -1.800001 0.200000 -1.800000
v -1.800001 0.000000 -0.999842
v -2.000001 0.000000 -0.999842
v -2.000001 0.200000 -0.999842
v -1.800001 0.200000 -0.999842
v -1.000000 0.000000 1.800000
v -1.000000 0.200000 1.800000
v -2.000000 0.000000 2.000000
v -2.000000 0.200000 2.000000
v -1.000000 0.000000 2.000000
v -1.000000 0.200000 2.000000
v -1.800000 0.000000 1.800000
v -1.800000 0.200000 1.800000
v -1.800000 0.000000 0.999843
v -2.000000 0.000000 0.999843
v -2.000000 0.200000 0.999843
v -1.800000 0.200000 0.999843
vt 0.6508 0.1889
vt 0.6508 0.1889
vt 0.6508 0.1889
vt 0.6508 0.1889
vt 0.6508 0.1889
vt 0.6508 0.1889
vt 0.6508 0.1889
vt 0.6508 0.1889
vt 0.6508 0.1889
vt 0.6508 0.1889
vt 0.6508 0.1889
vt 0.6508 0.1889
vt 0.6508 0.1889
vt 0.6508 0.1889
vt 0.6508 0.1889
vt 0.6508 0.1889
vt 0.6508 0.1889
vt 0.6508 0.1889
vt 0.6508 0.1889
vt 0.6508 0.1889
vt 0.6508 0.1889
vt 0.6508 0.1889
vt 0.6508 0.1889
vt 0.6508 0.1889
vt 0.6508 0.1889
vt 0.6508 0.1889
vt 0.6508 0.1889
vt 0.6508 0.1889
vt 0.6508 0.1889
vt 0.6508 0.1889
vt 0.6508 0.1889
vt 0.6508 0.1889
vt 0.6508 0.1889
vt 0.6508 0.1889
vt 0.6508 0.1889
vt 0.6508 0.1889
vt 0.6508 0.1889
vt 0.6508 0.1889
vt 0.6508 0.1889
vt 0.6508 0.1889
vt 0.6508 0.1889
vt 0.6508 0.1889
vt 0.6508 0.1889
vt 0.6508 0.1889
vt 0.6508 0.1889
vt 0.6508 0.1889
vt 0.6508 0.1889
vt 0.6508 0.1889
vn 0.0000 -1.0000 0.0000
vn 0.0000 0.0000 1.0000
vn -0.0000 0.0000 -1.0000
vn 0.0000 1.0000 0.0000
vn 1.0000 0.0000 0.0000
vn -1.0000 0.0000 0.0000
usemtl us_sol
s off
f 10/1/1 9/2/1 7/3/1 3/4/1
f 9/2/2 10/1/2 11/5/2 12/6/2
f 8/7/2 2/8/2 1/9/2 7/3/2
f 5/10/3 6/11/3 4/12/3 3/4/3
f 4/12/4 8/7/4 12/6/4 11/5/4
f 1/9/1 5/10/1 3/4/1 7/3/1
f 10/1/5 3/4/5 4/12/5 11/5/5
f 7/3/6 9/2/6 12/6/6 8/7/6
f 1/9/6 2/8/6 6/11/6 5/10/6
f 2/8/4 8/7/4 4/12/4 6/11/4
f 22/13/1 15/14/1 19/15/1 21/16/1
f 21/16/3 24/17/3 23/18/3 22/13/3
f 20/19/3 19/15/3 13/20/3 14/21/3
f 17/22/2 15/14/2 16/23/2 18/24/2
f 16/23/4 23/18/4 24/17/4 20/19/4
f 13/20/1 19/15/1 15/14/1 17/22/1
f 22/13/5 23/18/5 16/23/5 15/14/5
f 19/15/6 20/19/6 24/17/6 21/16/6
f 13/20/6 17/22/6 18/24/6 14/21/6
f 14/21/4 18/24/4 16/23/4 20/19/4
f 34/25/1 27/26/1 31/27/1 33/28/1
f 33/28/2 36/29/2 35/30/2 34/25/2
f 32/31/2 31/27/2 25/32/2 26/33/2
f 29/34/3 27/26/3 28/35/3 30/36/3
f 28/35/4 35/30/4 36/29/4 32/31/4
f 25/32/1 31/27/1 27/26/1 29/34/1
f 34/25/6 35/30/6 28/35/6 27/26/6
f 31/27/5 32/31/5 36/29/5 33/28/5
f 25/32/5 29/34/5 30/36/5 26/33/5
f 26/33/4 30/36/4 28/35/4 32/31/4
f 46/37/1 45/38/1 43/39/1 39/40/1
f 45/38/3 46/37/3 47/41/3 48/42/3
f 44/43/3 38/44/3 37/45/3 43/39/3
f 41/46/2 42/47/2 40/48/2 39/40/2
f 40/48/4 44/43/4 48/42/4 47/41/4
f 37/45/1 41/46/1 39/40/1 43/39/1
f 46/37/6 39/40/6 40/48/6 47/41/6
f 43/39/5 45/38/5 48/42/5 44/43/5
f 37/45/5 38/44/5 42/47/5 41/46/5
f 38/44/4 44/43/4 40/48/4 42/47/4
o pointer_Cylinder
v -0.000000 0.000000 -0.000000
v -0.000000 0.100000 -0.000000
v -0.200000 0.000000 -0.000000
v -0.200000 0.100000 -0.000000
v -0.173205 0.000000 -0.100000
v -0.173205 0.100000 -0.100000
v -0.100000 0.000000 -0.173205
v -0.100000 0.100000 -0.173205
v -0.000000 0.000000 -0.200000
v -0.000000 0.100000 -0.200000
v 0.100000 0.000000 -0.173205
v 0.100000 0.100000 -0.173205
v 0.173205 0.000000 -0.100000
v 0.173205 0.100000 -0.100000
v 0.200000 0.000000 -0.000000
v 0.200000 0.100000 -0.000000
v 0.173205 0.000000 0.100000
v 0.173205 0.100000 0.100000
v 0.100000 0.000000 0.173205
v 0.100000 0.100000 0.173205
v 0.000000 0.000000 0.200000
v 0.000000 0.100000 0.200000
v -0.100000 0.000000 0.173205
v -0.100000 0.100000 0.173205
v -0.173205 0.000000 0.100000
v -0.173205 0.100000 0.100000
vt 0.6531 0.1791
vt 0.6531 0.1801
vt 0.6536 0.1800
vt 0.6511 0.1791
vt 0.6516 0.1800
vt 0.6511 0.1801
vt 0.6504 0.1801
vt 0.6504 0.1822
vt 0.6501 0.1822
vt 0.6501 0.1801
vt 0.6540 0.1796
vt 0.6519 0.1796
vt 0.6507 0.1801
vt 0.6507 0.1822
vt 0.6504 0.1822
vt 0.6504 0.1801
vt 0.6541 0.1791
vt 0.6521 0.1791
vt 0.6511 0.1801
vt 0.6511 0.1822
vt 0.6507 0.1822
vt 0.6507 0.1801
vt 0.6540 0.1786
vt 0.6519 0.1786
vt 0.6514 0.1801
vt 0.6514 0.1822
vt 0.6511 0.1822
vt 0.6511 0.1801
vt 0.6536 0.1782
vt 0.6516 0.1782
vt 0.6518 0.1801
vt 0.6518 0.1822
vt 0.6514 0.1822
vt 0.6514 0.1801
vt 0.6531 0.1781
vt 0.6511 0.1781
vt 0.6521 0.1801
vt 0.6521 0.1822
vt 0.6518 0.1822
vt 0.6518 0.1801
vt 0.6526 0.1782
vt 0.6506 0.1782
vt 0.6524 0.1801
vt 0.6524 0.1822
vt 0.6521 0.1822
vt 0.6521 0.1801
vt 0.6523 0.1786
vt 0.6502 0.1786
vt 0.6528 0.1801
vt 0.6528 0.1822
vt 0.6524 0.1822
vt 0.6524 0.1801
vt 0.6521 0.1791
vt 0.6501 0.1791
vt 0.6531 0.1801
vt 0.6531 0.1822
vt 0.6528 0.1822
vt 0.6528 0.1801
vt 0.6523 0.1796
vt 0.6502 0.1796
vt 0.6535 0.1801
vt 0.6535 0.1822
vt 0.6531 0.1822
vt 0.6531 0.1801
vt 0.6526 0.1800
vt 0.6506 0.1800
vt 0.6538 0.1801
vt 0.6538 0.1822
vt 0.6535 0.1822
vt 0.6535 0.1801
vt 0.6542 0.1801
vt 0.6542 0.1822
vt 0.6538 0.1822
vt 0.6538 0.1801
vn 0.0000 -1.0000 0.0000
vn 0.0000 1.0000 -0.0000
vn -0.9659 0.0000 -0.2588
vn -0.7071 0.0000 -0.7071
vn -0.2588 0.0000 -0.9659
vn 0.2588 0.0000 -0.9659
vn 0.7071 0.0000 -0.7071
vn 0.9659 0.0000 -0.2588
vn 0.9659 0.0000 0.2588
vn 0.7071 0.0000 0.7071
vn 0.2588 0.0000 0.9659
vn -0.2588 0.0000 0.9659
vn -0.7071 0.0000 0.7071
vn -0.9659 0.0000 0.2588
usemtl us_sol
s off
f 49/49/7 51/50/7 53/51/7
f 50/52/8 54/53/8 52/54/8
f 51/55/9 52/56/9 54/57/9 53/58/9
f 49/49/7 53/51/7 55/59/7
f 50/52/8 56/60/8 54/53/8
f 53/61/10 54/62/10 56/63/10 55/64/10
f 49/49/7 55/59/7 57/65/7
f 50/52/8 58/66/8 56/60/8
f 55/67/11 56/68/11 58/69/11 57/70/11
f 49/49/7 57/65/7 59/71/7
f 50/52/8 60/72/8 58/66/8
f 57/73/12 58/74/12 60/75/12 59/76/12
f 49/49/7 59/71/7 61/77/7
f 50/52/8 62/78/8 60/72/8
f 59/79/13 60/80/13 62/81/13 61/82/13
f 49/49/7 61/77/7 63/83/7
f 50/52/8 64/84/8 62/78/8
f 61/85/14 62/86/14 64/87/14 63/88/14
f 49/49/7 63/83/7 65/89/7
f 50/52/8 66/90/8 64/84/8
f 63/91/15 64/92/15 66/93/15 65/94/15
f 49/49/7 65/89/7 67/95/7
f 50/52/8 68/96/8 66/90/8
f 65/97/16 66/98/16 68/99/16 67/100/16
f 49/49/7 67/95/7 69/101/7
f 50/52/8 70/102/8 68/96/8
f 67/103/17 68/104/17 70/105/17 69/106/17
f 49/49/7 69/101/7 71/107/7
f 50/52/8 72/108/8 70/102/8
f 69/109/18 70/110/18 72/111/18 71/112/18
f 49/49/7 71/107/7 73/113/7
f 50/52/8 74/114/8 72/108/8
f 71/115/19 72/116/19 74/117/19 73/118/19
f 49/49/7 73/113/7 51/50/7
f 50/52/8 52/54/8 74/114/8
f 73/119/20 74/120/20 52/121/20 51/122/20
o arrow_Cube
v 0.100000 0.000000 -2.200000
v -0.100000 0.000000 -2.200000
v -0.100000 0.200000 -2.200000
v 0.100000 0.150000 -2.200000
v 0.050000 0.000000 -2.200000
v -0.000000 0.000000 -2.200000
v -0.000000 0.200000 -2.200000
v 0.050000 0.200000 -2.200000
v -0.000001 0.100000 -2.600000
v -0.100000 0.100000 -2.200000
v -0.050000 0.150000 -1.800000
v -0.100000 0.150000 -2.200000
v 0.050000 0.050000 -2.200000
v -0.050000 0.050000 -1.800000
v 0.050000 0.050000 -1.800000
v 0.100000 0.200000 -2.200000
v 0.100000 0.100000 -2.200000
v 0.100000 0.050000 -2.200000
v -0.050000 0.050000 -2.200000
v -0.100000 0.050000 -2.200000
v 0.050000 0.150000 -2.200000
v -0.050000 0.000000 -2.200000
v 0.050000 0.150000 -1.800000
v -0.050000 0.200000 -2.200000
v -0.050000 0.150000 -2.200000
vt 0.6495 0.1809
vt 0.6495 0.1806
vt 0.6495 0.1802
vt 0.6504 0.1806
vt 0.6513 0.1803
vt 0.6513 0.1807
vt 0.6513 0.1811
vt 0.6508 0.1798
vt 0.6511 0.1800
vt 0.6499 0.1815
vt 0.6497 0.1812
vt 0.6491 0.1788
vt 0.6494 0.1787
vt 0.6555 0.1798
vt 0.6544 0.1798
vt 0.6488 0.1815
vt 0.6488 0.1822
vt 0.6486 0.1822
vt 0.6486 0.1815
vt 0.6524 0.1811
vt 0.6524 0.1807
vt 0.6486 0.1815
vt 0.6486 0.1822
vt 0.6484 0.1822
vt 0.6484 0.1815
vt 0.6484 0.1805
vt 0.6484 0.1802
vt 0.6541 0.1795
vt 0.6545 0.1794
vt 0.6491 0.1786
vt 0.6484 0.1786
vt 0.6501 0.1798
vt 0.6507 0.1815
vn -0.9701 0.0000 -0.2425
vn 0.9701 0.0000 -0.2425
vn 0.0000 -1.0000 0.0000
vn 0.0000 0.0000 1.0000
vn 0.0000 1.0000 0.0000
vn -1.0000 0.0000 0.0000
vn 1.0000 0.0000 -0.0000
vn 0.0000 0.9701 -0.2425
vn 0.0000 -0.9701 -0.2425
usemtl us_sol
s off
f 84/123/21 86/124/21 77/125/21 83/126/21
f 91/127/22 92/128/22 75/129/22 83/126/22
f 90/130/22 78/131/22 91/127/22 83/126/22
f 76/132/21 94/133/21 84/123/21 83/126/21
f 89/134/23 88/135/23 93/136/23 87/137/23
f 92/138/24 90/139/24 82/140/24 87/141/24
f 96/142/24 75/129/24 92/128/24 93/143/24
f 96/144/24 99/145/24 86/146/24 76/147/24
f 95/148/24 82/149/24 77/125/24 86/124/24
f 95/150/25 99/151/25 85/152/25 97/153/25
f 88/135/24 89/134/24 97/153/24 85/152/24
f 99/151/26 93/136/26 88/135/26 85/152/26
f 97/153/27 89/134/27 87/137/27 95/150/27
f 83/126/28 81/154/28 90/130/28
f 83/126/28 77/125/28 81/154/28
f 83/126/29 75/129/29 80/155/29
f 83/126/29 80/155/29 76/132/29
l 75 79
l 79 80
l 81 82
l 77 98
l 80 96
l 98 81
