# Blender v2.78 (sub 0) OBJ File: 'cf_collider.blend'
# www.blender.org
mtllib cf_collide.mtl
o field_Cube.000
v 5.532918 0.500002 -10.205798
v -5.532918 0.500002 -10.205798
v -5.532918 0.499998 10.205798
v 5.532918 0.499998 10.205798
v -5.532918 0.000002 -10.205798
v -5.532918 -0.000002 10.205798
v 5.532918 0.000002 -10.205798
v 5.532918 -0.000002 10.205798
vn 0.0000 1.0000 0.0000
vn -1.0000 0.0000 0.0000
vn 0.0000 0.0000 -1.0000
vn 1.0000 0.0000 0.0000
vn 0.0000 0.0000 1.0000
usemtl None.001
s 1
f 1//1 2//1 3//1 4//1
f 5//2 6//2 3//2 2//2
f 7//3 5//3 2//3 1//3
f 8//4 7//4 1//4 4//4
f 6//5 8//5 4//5 3//5
o field_Cube.001
v 5.532918 0.500002 -10.205798
v -5.532918 0.500002 -10.205798
v -5.532918 0.499998 10.205798
v 5.532918 0.499998 10.205798
v -5.532918 0.000002 -10.205798
v -5.532918 -0.000002 10.205798
v 5.532918 0.000002 -10.205798
v 5.532918 -0.000002 10.205798
vn 0.0000 1.0000 0.0000
vn -1.0000 0.0000 0.0000
vn 0.0000 0.0000 -1.0000
vn 1.0000 0.0000 0.0000
vn 0.0000 0.0000 1.0000
usemtl None
s 1
f 9//6 10//6 11//6 12//6
f 13//7 14//7 11//7 10//7
f 15//8 13//8 10//8 9//8
f 16//9 15//9 9//9 12//9
f 14//10 16//10 12//10 11//10
o Cube_Cube.005
v -2.000000 0.000000 2.000000
v -2.000000 0.100000 2.000000
v -2.000000 0.000000 -2.000000
v -2.000000 0.100000 -2.000000
v 2.000000 0.000000 2.000000
v 2.000000 0.100000 2.000000
v 2.000000 0.000000 -2.000000
v 2.000000 0.100000 -2.000000
vn -1.0000 0.0000 0.0000
vn 0.0000 0.0000 -1.0000
vn 1.0000 0.0000 0.0000
vn 0.0000 0.0000 1.0000
vn 0.0000 -1.0000 0.0000
vn 0.0000 1.0000 0.0000
usemtl None
s off
f 17//11 18//11 20//11 19//11
f 19//12 20//12 24//12 23//12
f 23//13 24//13 22//13 21//13
f 21//14 22//14 18//14 17//14
f 19//15 23//15 21//15 17//15
f 24//16 20//16 18//16 22//16
