# Blender v2.78 (sub 0) OBJ File: 'cf_stand.blend'
# www.blender.org
mtllib cf_stand1.mtl
o i_pointer_Plane
v 2.000000 0.000000 0.196560
v 2.000000 0.000000 -0.196560
v 2.504000 0.000000 0.000000
v 1.496000 0.000000 0.098280
v 1.496000 0.000000 -0.098280
v 2.000000 0.000000 0.098280
v 2.000000 0.000000 -0.098280
v 2.000000 0.100000 0.196560
v 2.000000 0.100000 -0.196560
v 2.504000 0.100000 0.000000
v 1.496000 0.100000 0.098280
v 1.496000 0.100000 -0.098280
v 2.000000 0.100000 0.098280
v 2.000000 0.100000 -0.098280
v 0.000000 0.100000 -0.200000
v -0.086777 0.100000 -0.180194
v -0.156366 0.100000 -0.124698
v -0.194985 0.100000 -0.044504
v -0.194985 0.100000 0.044504
v -0.156366 0.100000 0.124698
v -0.086777 0.100000 0.180194
v 0.000000 0.100000 0.200000
v 0.086777 0.100000 0.180194
v 0.156366 0.100000 0.124698
v 0.194986 0.100000 0.044504
v 0.194986 0.100000 -0.044504
v 0.156366 0.100000 -0.124698
v 0.086777 0.100000 -0.180194
v 0.000000 0.100000 -0.000000
v 0.156366 0.000000 -0.124698
v 0.194986 0.000000 -0.044504
v 0.194986 0.000000 0.044504
v 0.156366 0.000000 0.124698
v 0.086777 0.000000 0.180194
v 0.000000 0.000000 0.200000
v -0.086777 0.000000 0.180194
v -0.156366 0.000000 0.124698
v -0.194985 0.000000 0.044504
v -0.194985 0.000000 -0.044504
v -0.156366 0.000000 -0.124698
v -0.086777 0.000000 -0.180194
v 0.000000 0.000000 -0.200000
v 0.086777 0.000000 -0.180194
v 0.000000 0.000000 -0.000000
vn 0.0000 1.0000 0.0000
vn 0.0000 -1.0000 0.0000
vn 0.0000 0.0000 -1.0000
vn -0.3633 0.0000 0.9317
vn 1.0000 0.0000 0.0000
vn 0.0000 0.0000 1.0000
vn -0.3633 0.0000 -0.9317
vn -0.9010 0.0000 0.4339
vn 0.9010 0.0000 -0.4339
vn -0.6235 0.0000 0.7818
vn 0.6235 0.0000 -0.7818
vn -0.2225 0.0000 0.9749
vn 0.2225 0.0000 -0.9749
vn -0.2225 0.0000 -0.9749
vn 0.2225 0.0000 0.9749
vn -0.6235 0.0000 -0.7818
vn 0.6235 0.0000 0.7818
vn -0.9010 0.0000 -0.4339
vn 0.9010 0.0000 0.4339
vn -1.0000 0.0000 0.0000
usemtl pointer
s off
f 5//1 4//1 6//1
f 7//1 5//1 6//1
f 3//1 6//1 1//1
f 2//1 7//1 3//1
f 6//1 3//1 7//1
f 12//2 13//2 11//2
f 14//2 13//2 12//2
f 10//2 8//2 13//2
f 9//2 10//2 14//2
f 13//2 14//2 10//2
f 4//3 13//3 6//3
f 3//4 9//4 2//4
f 2//5 14//5 7//5
f 7//6 12//6 5//6
f 1//5 6//5 13//5
f 3//7 1//7 8//7
f 5//5 11//5 4//5
f 4//3 11//3 13//3
f 3//4 10//4 9//4
f 2//5 9//5 14//5
f 7//6 14//6 12//6
f 1//5 13//5 8//5
f 3//7 8//7 10//7
f 5//5 12//5 11//5
f 27//2 26//2 29//2
f 20//2 19//2 29//2
f 28//2 27//2 29//2
f 21//2 20//2 29//2
f 15//2 28//2 29//2
f 22//2 21//2 29//2
f 23//2 22//2 29//2
f 16//2 15//2 29//2
f 24//2 23//2 29//2
f 17//2 16//2 29//2
f 25//2 24//2 29//2
f 18//2 17//2 29//2
f 26//2 25//2 29//2
f 19//2 18//2 29//2
f 30//1 44//1 31//1
f 37//1 44//1 38//1
f 43//1 44//1 30//1
f 36//1 44//1 37//1
f 42//1 44//1 43//1
f 35//1 44//1 36//1
f 34//1 44//1 35//1
f 41//1 44//1 42//1
f 33//1 44//1 34//1
f 40//1 44//1 41//1
f 32//1 44//1 33//1
f 39//1 44//1 40//1
f 31//1 44//1 32//1
f 38//1 44//1 39//1
f 26//8 27//8 30//8
f 19//9 20//9 37//9
f 27//10 28//10 43//10
f 20//11 21//11 36//11
f 28//12 15//12 42//12
f 21//13 22//13 35//13
f 22//14 23//14 34//14
f 15//15 16//15 41//15
f 23//16 24//16 33//16
f 16//17 17//17 40//17
f 24//18 25//18 32//18
f 17//19 18//19 39//19
f 25//20 26//20 31//20
f 18//5 19//5 38//5
f 26//8 30//8 31//8
f 19//9 37//9 38//9
f 27//10 43//10 30//10
f 20//11 36//11 37//11
f 28//12 42//12 43//12
f 21//13 35//13 36//13
f 22//14 34//14 35//14
f 15//15 41//15 42//15
f 23//16 33//16 34//16
f 16//17 40//17 41//17
f 24//18 32//18 33//18
f 17//19 39//19 40//19
f 25//20 31//20 32//20
f 18//5 38//5 39//5
o i_frame_Cube.001
v 1.800000 0.000000 1.000000
v 1.800000 0.200000 1.000000
v 2.000000 0.000000 2.000000
v 2.000000 0.200000 2.000000
v 2.000000 0.000000 1.000000
v 2.000000 0.200000 1.000000
v 1.800000 0.000000 1.800000
v 1.800000 0.200000 1.800000
v 0.999843 0.000000 1.800000
v 0.999843 0.000000 2.000000
v 0.999843 0.200000 2.000000
v 0.999843 0.200000 1.800000
v -1.800000 0.000000 1.000000
v -1.800000 0.200000 1.000000
v -2.000000 0.000000 2.000000
v -2.000000 0.200000 2.000000
v -2.000000 0.000000 1.000000
v -2.000000 0.200000 1.000000
v -1.800000 0.000000 1.800000
v -1.800000 0.200000 1.800000
v -0.999843 0.000000 1.800000
v -0.999843 0.000000 2.000000
v -0.999843 0.200000 2.000000
v -0.999843 0.200000 1.800000
v 1.800000 0.000000 -1.000000
v 1.800000 0.200000 -1.000000
v 2.000000 0.000000 -2.000000
v 2.000000 0.200000 -2.000000
v 2.000000 0.000000 -1.000000
v 2.000000 0.200000 -1.000000
v 1.800000 0.000000 -1.800000
v 1.800000 0.200000 -1.800000
v 0.999842 0.000000 -1.800000
v 0.999842 0.000000 -2.000000
v 0.999842 0.200000 -2.000000
v 0.999842 0.200000 -1.800000
v -1.800000 0.000000 -1.000000
v -1.800000 0.200000 -1.000000
v -2.000000 0.000000 -2.000000
v -2.000000 0.200000 -2.000000
v -2.000000 0.000000 -1.000000
v -2.000000 0.200000 -1.000000
v -1.800000 0.000000 -1.800000
v -1.800000 0.200000 -1.800000
v -0.999843 0.000000 -1.800000
v -0.999843 0.000000 -2.000000
v -0.999843 0.200000 -2.000000
v -0.999843 0.200000 -1.800000
vn -1.0000 0.0000 0.0000
vn 0.0000 0.0000 -1.0000
vn 0.0000 0.0000 1.0000
vn 1.0000 0.0000 0.0000
vn 0.0000 1.0000 0.0000
vn 0.0000 -1.0000 -0.0000
usemtl None
s off
f 52//21 45//21 51//21
f 46//22 49//22 45//22
f 47//23 55//23 54//23
f 50//24 47//24 49//24
f 52//25 50//25 46//25
f 54//26 51//26 47//26
f 55//21 53//21 54//21
f 51//22 56//22 52//22
f 49//26 51//26 45//26
f 52//25 55//25 48//25
f 57//24 64//24 63//24
f 61//22 58//22 57//22
f 67//23 59//23 66//23
f 59//21 62//21 61//21
f 62//25 64//25 58//25
f 66//26 63//26 65//26
f 65//24 67//24 66//24
f 68//22 63//22 64//22
f 63//26 61//26 57//26
f 67//25 64//25 60//25
f 69//21 76//21 75//21
f 73//23 70//23 69//23
f 79//22 71//22 78//22
f 71//24 74//24 73//24
f 74//25 76//25 70//25
f 78//26 75//26 77//26
f 77//21 79//21 78//21
f 80//23 75//23 76//23
f 75//26 73//26 69//26
f 79//25 76//25 72//25
f 88//24 81//24 87//24
f 82//23 85//23 81//23
f 83//22 91//22 90//22
f 86//21 83//21 85//21
f 88//25 86//25 82//25
f 90//26 87//26 83//26
f 91//24 89//24 90//24
f 87//23 92//23 88//23
f 85//26 87//26 81//26
f 88//25 91//25 84//25
f 52//21 46//21 45//21
f 46//22 50//22 49//22
f 47//23 48//23 55//23
f 50//24 48//24 47//24
f 52//25 48//25 50//25
f 54//26 53//26 51//26
f 55//21 56//21 53//21
f 51//22 53//22 56//22
f 49//26 47//26 51//26
f 52//25 56//25 55//25
f 57//24 58//24 64//24
f 61//22 62//22 58//22
f 67//23 60//23 59//23
f 59//21 60//21 62//21
f 62//25 60//25 64//25
f 66//26 59//26 63//26
f 65//24 68//24 67//24
f 68//22 65//22 63//22
f 63//26 59//26 61//26
f 67//25 68//25 64//25
f 69//21 70//21 76//21
f 73//23 74//23 70//23
f 79//22 72//22 71//22
f 71//24 72//24 74//24
f 74//25 72//25 76//25
f 78//26 71//26 75//26
f 77//21 80//21 79//21
f 80//23 77//23 75//23
f 75//26 71//26 73//26
f 79//25 80//25 76//25
f 88//24 82//24 81//24
f 82//23 86//23 85//23
f 83//22 84//22 91//22
f 86//21 84//21 83//21
f 88//25 84//25 86//25
f 90//26 89//26 87//26
f 91//24 92//24 89//24
f 87//23 89//23 92//23
f 85//26 83//26 87//26
f 88//25 92//25 91//25
