# Blender v2.78 (sub 0) OBJ File: 'cf_stand.blend'
# www.blender.org
mtllib cf_stand0.mtl
o Cube_Cube.001
v 1.800000 0.000000 1.000000
v 1.800000 0.200000 1.000000
v 2.000000 0.000000 2.000000
v 2.000000 0.200000 2.000000
v 2.000000 0.000000 1.000000
v 2.000000 0.200000 1.000000
v 1.800000 0.000000 1.800000
v 1.800000 0.200000 1.800000
v 0.999843 0.000000 1.800000
v 0.999843 0.000000 2.000000
v 0.999843 0.200000 2.000000
v 0.999843 0.200000 1.800000
v -1.800000 0.000000 1.000000
v -1.800000 0.200000 1.000000
v -2.000000 0.000000 2.000000
v -2.000000 0.200000 2.000000
v -2.000000 0.000000 1.000000
v -2.000000 0.200000 1.000000
v -1.800000 0.000000 1.800000
v -1.800000 0.200000 1.800000
v -0.999843 0.000000 1.800000
v -0.999843 0.000000 2.000000
v -0.999843 0.200000 2.000000
v -0.999843 0.200000 1.800000
v 1.800000 0.000000 -1.000000
v 1.800000 0.200000 -1.000000
v 2.000000 0.000000 -2.000000
v 2.000000 0.200000 -2.000000
v 2.000000 0.000000 -1.000000
v 2.000000 0.200000 -1.000000
v 1.800000 0.000000 -1.800000
v 1.800000 0.200000 -1.800000
v 0.999843 0.000000 -1.800000
v 0.999843 0.000000 -2.000000
v 0.999843 0.200000 -2.000000
v 0.999843 0.200000 -1.800000
v -1.800000 0.000000 -1.000000
v -1.800000 0.200000 -1.000000
v -2.000000 0.000000 -2.000000
v -2.000000 0.200000 -2.000000
v -2.000000 0.000000 -1.000000
v -2.000000 0.200000 -1.000000
v -1.800000 0.000000 -1.800000
v -1.800000 0.200000 -1.800000
v -0.999843 0.000000 -1.800000
v -0.999843 0.000000 -2.000000
v -0.999843 0.200000 -2.000000
v -0.999843 0.200000 -1.800000
vn -1.0000 0.0000 0.0000
vn 0.0000 0.0000 -1.0000
vn 0.0000 0.0000 1.0000
vn 1.0000 0.0000 0.0000
vn 0.0000 1.0000 0.0000
vn 0.0000 -1.0000 0.0000
usemtl None
s off
f 8//1 1//1 7//1
f 2//2 5//2 1//2
f 3//3 11//3 10//3
f 6//4 3//4 5//4
f 8//5 6//5 2//5
f 10//6 7//6 3//6
f 11//1 9//1 10//1
f 7//2 12//2 8//2
f 5//6 7//6 1//6
f 8//5 11//5 4//5
f 13//4 20//4 19//4
f 17//2 14//2 13//2
f 23//3 15//3 22//3
f 15//1 18//1 17//1
f 18//5 20//5 14//5
f 22//6 19//6 21//6
f 21//4 23//4 22//4
f 24//2 19//2 20//2
f 19//6 17//6 13//6
f 23//5 20//5 16//5
f 25//1 32//1 31//1
f 29//3 26//3 25//3
f 35//2 27//2 34//2
f 27//4 30//4 29//4
f 30//5 32//5 26//5
f 34//6 31//6 33//6
f 33//1 35//1 34//1
f 36//3 31//3 32//3
f 31//6 29//6 25//6
f 35//5 32//5 28//5
f 44//4 37//4 43//4
f 38//3 41//3 37//3
f 39//2 47//2 46//2
f 42//1 39//1 41//1
f 44//5 42//5 38//5
f 46//6 43//6 39//6
f 47//4 45//4 46//4
f 43//3 48//3 44//3
f 41//6 43//6 37//6
f 44//5 47//5 40//5
f 8//1 2//1 1//1
f 2//2 6//2 5//2
f 3//3 4//3 11//3
f 6//4 4//4 3//4
f 8//5 4//5 6//5
f 10//6 9//6 7//6
f 11//1 12//1 9//1
f 7//2 9//2 12//2
f 5//6 3//6 7//6
f 8//5 12//5 11//5
f 13//4 14//4 20//4
f 17//2 18//2 14//2
f 23//3 16//3 15//3
f 15//1 16//1 18//1
f 18//5 16//5 20//5
f 22//6 15//6 19//6
f 21//4 24//4 23//4
f 24//2 21//2 19//2
f 19//6 15//6 17//6
f 23//5 24//5 20//5
f 25//1 26//1 32//1
f 29//3 30//3 26//3
f 35//2 28//2 27//2
f 27//4 28//4 30//4
f 30//5 28//5 32//5
f 34//6 27//6 31//6
f 33//1 36//1 35//1
f 36//3 33//3 31//3
f 31//6 27//6 29//6
f 35//5 36//5 32//5
f 44//4 38//4 37//4
f 38//3 42//3 41//3
f 39//2 40//2 47//2
f 42//1 40//1 39//1
f 44//5 40//5 42//5
f 46//6 45//6 43//6
f 47//4 48//4 45//4
f 43//3 45//3 48//3
f 41//6 39//6 43//6
f 44//5 48//5 47//5
