# Blender v2.78 (sub 0) OBJ File: 'cf_token.blend'
# www.blender.org
mtllib cf_st_sup.mtl
o suppress
v -0.427866 4.577968 -0.144124
v -0.000000 4.150102 -0.144124
v -0.000000 5.005833 -0.144124
v 0.427866 4.577968 -0.144124
v -0.427866 5.005833 -0.144124
v -0.427866 4.150102 -0.144124
v 0.427866 4.150102 -0.144124
v 0.427866 5.005833 -0.144124
v -0.000000 4.577968 -0.144124
v -0.556225 4.706327 -0.144124
v -0.128360 4.021742 -0.144124
v 0.556225 4.449608 -0.144124
v 0.128360 5.134193 -0.144124
v -0.128360 5.134193 -0.144124
v -0.556225 4.449608 -0.144124
v 0.128360 4.021742 -0.144124
v 0.556225 4.706327 -0.144124
v -0.556225 4.706327 -0.144124
v -0.427866 4.577968 -0.144124
v -0.128360 4.021742 -0.144124
v -0.000000 4.150102 -0.144124
v 0.556225 4.449608 -0.144124
v 0.427866 4.577968 -0.144124
v 0.128360 5.134193 -0.144124
v -0.000000 5.005833 -0.144124
v -0.128360 5.134193 -0.144124
v -0.427866 5.005833 -0.144124
v -0.556225 4.449608 -0.144124
v -0.427866 4.150102 -0.144124
v 0.128360 4.021742 -0.144124
v 0.427866 4.150102 -0.144124
v 0.556225 4.706327 -0.144124
v 0.427866 5.005833 -0.144124
v -0.556225 4.706327 0.136300
v -0.427866 4.577968 0.136300
v -0.128360 4.021742 0.136300
v -0.000000 4.150102 0.136300
v 0.556225 4.449608 0.136301
v 0.427866 4.577968 0.136301
v 0.128360 5.134193 0.136301
v -0.000000 5.005833 0.136301
v -0.128360 5.134193 0.136301
v -0.427866 5.005833 0.136300
v -0.556225 4.449608 0.136300
v -0.427866 4.150102 0.136300
v 0.128360 4.021742 0.136300
v 0.427866 4.150102 0.136300
v 0.556225 4.706327 0.136301
v 0.427866 5.005833 0.136301
v -0.000000 4.577968 0.136300
vt 0.8731 0.7158
vt 0.7994 0.7158
vt 0.7994 0.6421
vt 0.8731 0.7895
vt 0.7994 0.7895
vt 0.9468 0.7158
vt 0.9468 0.6421
vt 0.9689 0.6937
vt 0.8510 0.6200
vt 0.8731 0.6421
vt 0.9793 0.9900
vt 0.9719 0.9900
vt 0.9719 0.9828
vt 0.9793 0.9828
vt 0.9645 0.9755
vt 0.9645 0.9635
vt 0.9719 0.9635
vt 0.9719 0.9755
vt 0.9645 0.9755
vt 0.9719 0.9755
vt 0.9719 0.9828
vt 0.9645 0.9828
vt 0.9793 0.9273
vt 0.9867 0.9273
vt 0.9867 0.9345
vt 0.9793 0.9345
vt 0.7670 0.3989
vt 0.7670 0.3989
vt 0.7670 0.3989
vt 0.7670 0.3989
vt 0.7670 0.3989
vt 0.7670 0.3989
vt 0.7670 0.3989
vt 0.7670 0.3989
vt 0.7670 0.3989
vt 0.7670 0.3989
vt 0.7670 0.3989
vt 0.7670 0.3989
vt 0.7670 0.3989
vt 0.7670 0.3989
vt 0.7670 0.3989
vt 0.7670 0.3989
vt 0.7670 0.3989
vt 0.7670 0.3989
vt 0.7670 0.3989
vt 0.7670 0.3989
vt 0.7670 0.3989
vt 0.7670 0.3989
vt 0.7670 0.3989
vt 0.7670 0.3989
vt 0.7670 0.3989
vt 0.7670 0.3989
vt 0.7670 0.3989
vt 0.7670 0.3989
vt 0.7670 0.3989
vt 0.7670 0.3989
vt 0.7670 0.3989
vt 0.7670 0.3989
vt 0.8730 0.7159
vt 0.9467 0.7159
vt 0.9467 0.7896
vt 0.8952 0.8117
vt 0.8730 0.7896
vt 0.7993 0.7159
vt 0.7993 0.7896
vt 0.7772 0.7380
vt 0.8730 0.6422
vt 0.9467 0.6422
vt 0.9645 0.9514
vt 0.9719 0.9514
vt 0.9719 0.9273
vt 0.9719 0.9393
vt 0.9645 0.9393
vt 0.9645 0.9273
vt 0.9719 0.9514
vt 0.9645 0.9514
vt 0.9793 0.9273
vt 0.9793 0.9393
vt 0.9719 0.9393
vt 0.9719 0.9273
vt 0.9793 0.9514
vt 0.9719 0.9514
vt 0.9793 0.9514
vt 0.9793 0.9635
vt 0.9719 0.9635
vt 0.9719 0.9514
vt 0.9645 0.9900
vt 0.9645 0.9828
vt 0.9719 0.9828
vt 0.9719 0.9900
vt 0.9793 0.9755
vt 0.9719 0.9755
vt 0.9793 0.9828
vt 0.9719 0.9828
vt 0.9719 0.9755
vt 0.9793 0.9755
vt 0.9867 0.9490
vt 0.9793 0.9490
vt 0.9793 0.9418
vt 0.9867 0.9418
vt 0.9867 0.9490
vt 0.9867 0.9562
vt 0.9793 0.9562
vt 0.9793 0.9490
vt 0.9793 0.9345
vt 0.9867 0.9345
vt 0.9867 0.9418
vt 0.9793 0.9418
vt 0.7773 0.6937
vt 0.7773 0.7380
vt 0.9468 0.7895
vt 0.8510 0.8117
vt 0.8952 0.8117
vt 0.9689 0.7380
vt 0.8952 0.6200
vt 0.9689 0.7380
vt 0.9689 0.6938
vt 0.8509 0.8117
vt 0.7772 0.6938
vt 0.7993 0.6422
vt 0.8952 0.6201
vt 0.8509 0.6201
vn 0.0000 0.0000 -1.0000
vn 0.7071 -0.7071 0.0000
vn -0.3939 0.9191 0.0000
vn -0.7071 -0.7071 0.0000
vn -0.7071 0.7071 0.0000
vn 0.0000 0.0000 1.0000
vn -0.9191 0.3939 0.0000
vn -0.9191 -0.3939 0.0000
vn -0.3939 -0.9191 0.0000
vn 0.3939 -0.9191 0.0000
vn 0.9191 -0.3939 0.0000
vn 0.9191 0.3939 0.0000
vn 0.3939 0.9191 0.0000
vn 0.7071 0.7071 0.0000
usemtl cf_tokens
s off
f 9/1/1 4/2/1 7/3/1
f 3/4/1 8/5/1 9/1/1
f 1/6/1 6/7/1 15/8/1
f 7/3/1 16/9/1 2/10/1
f 23/11/2 32/12/2 48/13/2 39/14/2
f 26/15/3 27/16/3 43/17/3 42/18/3
f 21/19/4 30/20/4 46/21/4 37/22/4
f 24/23/5 25/24/5 41/25/5 40/26/5
f 11/27/6 2/28/6 21/29/6 20/30/6
f 3/31/6 14/32/6 26/33/6 25/34/6
f 12/35/6 4/36/6 23/37/6 22/38/6
f 1/39/6 15/40/6 28/41/6 19/42/6
f 13/43/6 3/31/6 25/34/6 24/44/6
f 2/28/6 16/45/6 30/46/6 21/29/6
f 14/32/6 5/47/6 27/48/6 26/33/6
f 4/36/6 17/49/6 32/50/6 23/37/6
f 5/47/6 10/51/6 18/52/6 27/48/6
f 15/40/6 6/53/6 29/54/6 28/41/6
f 6/53/6 11/27/6 20/30/6 29/54/6
f 16/45/6 7/55/6 31/56/6 30/46/6
f 7/55/6 12/35/6 22/38/6 31/56/6
f 17/49/6 8/57/6 33/58/6 32/50/6
f 10/51/6 1/39/6 19/42/6 18/52/6
f 8/57/6 13/43/6 24/44/6 33/58/6
f 50/59/6 39/60/6 49/61/6
f 49/61/6 40/62/6 41/63/6
f 35/64/6 43/65/6 34/66/6
f 37/67/6 47/68/6 50/59/6
f 27/16/7 18/69/7 34/70/7 43/17/7
f 28/71/8 29/72/8 45/73/8 44/74/8
f 29/72/9 20/75/9 36/76/9 45/73/9
f 30/77/10 31/78/10 47/79/10 46/80/10
f 31/78/11 22/81/11 38/82/11 47/79/11
f 32/83/12 33/84/12 49/85/12 48/86/12
f 18/87/4 19/88/4 35/89/4 34/90/4
f 33/84/13 24/91/13 40/92/13 49/85/13
f 20/93/2 21/94/2 37/95/2 36/96/2
f 25/97/14 26/98/14 42/99/14 41/100/14
f 22/101/14 23/102/14 39/103/14 38/104/14
f 19/105/5 28/106/5 44/107/5 35/108/5
f 9/1/1 8/5/1 4/2/1
f 4/2/1 12/109/1 7/3/1
f 8/5/1 17/110/1 4/2/1
f 9/1/1 5/111/1 3/4/1
f 3/4/1 13/112/1 8/5/1
f 5/111/1 14/113/1 3/4/1
f 1/6/1 10/114/1 5/111/1
f 9/1/1 6/7/1 1/6/1
f 1/6/1 5/111/1 9/1/1
f 11/115/1 6/7/1 2/10/1
f 9/1/1 7/3/1 2/10/1
f 2/10/1 6/7/1 9/1/1
f 50/59/6 47/68/6 39/60/6
f 39/60/6 48/116/6 49/61/6
f 47/68/6 38/117/6 39/60/6
f 42/118/6 43/65/6 41/63/6
f 50/59/6 49/61/6 41/63/6
f 41/63/6 43/65/6 50/59/6
f 35/64/6 44/119/6 45/120/6
f 50/59/6 43/65/6 35/64/6
f 35/64/6 45/120/6 50/59/6
f 50/59/6 45/120/6 37/67/6
f 37/67/6 46/121/6 47/68/6
f 45/120/6 36/122/6 37/67/6
