# This file uses centimeters as units for non-parametric coordinates.

mtllib Crater.mtl
g default
v 1.689001 0.000752 -0.975145
v 0.975145 0.000752 -1.689001
v -0.000000 0.000752 -1.950290
v -0.975145 0.000752 -1.689001
v -1.689001 0.000752 -0.975145
v -1.950290 0.000752 0.000000
v -1.689001 0.000752 0.975145
v -0.975145 0.000752 1.689000
v -0.000000 0.000752 1.950290
v 0.975145 0.000752 1.689000
v 1.689001 0.000752 0.975145
v 1.950290 0.000752 0.000000
v 1.251809 0.323110 -0.722732
v 0.722732 0.323110 -1.251809
v -0.000000 0.323110 -1.445464
v -0.722732 0.323110 -1.251809
v -1.251809 0.323110 -0.722732
v -1.445464 0.323110 0.000000
v -1.251809 0.323110 0.722732
v -0.722732 0.323110 1.251809
v -0.000000 0.323110 1.445464
v 0.722732 0.323110 1.251809
v 1.251809 0.323110 0.722732
v 1.445464 0.323110 0.000000
v 1.139446 0.373749 -0.657859
v 0.657859 0.373749 -1.139446
v -0.000000 0.373749 -1.315719
v -0.657859 0.373749 -1.139446
v -1.139446 0.373749 -0.657859
v -1.315718 0.373749 0.000000
v -1.139446 0.373749 0.657859
v -0.657859 0.373749 1.139446
v -0.000000 0.373749 1.315719
v 0.657859 0.373749 1.139446
v 1.139446 0.373749 0.657859
v 1.315719 0.373749 0.000000
v 0.753386 0.258316 -0.434968
v 0.434968 0.258316 -0.753386
v -0.000000 0.258316 -0.869935
v -0.434968 0.258316 -0.753386
v -0.753386 0.258316 -0.434968
v -0.869935 0.258316 0.000000
v -0.753386 0.258316 0.434968
v -0.434968 0.258316 0.753386
v -0.000000 0.258316 0.869935
v 0.434968 0.258316 0.753386
v 0.753386 0.258316 0.434968
v 0.869935 0.258316 0.000000
v 0.392350 0.209026 -0.226523
v 0.226523 0.209026 -0.392350
v -0.000000 0.209026 -0.453047
v -0.226523 0.209026 -0.392350
v -0.392350 0.209026 -0.226523
v -0.453047 0.209026 0.000000
v -0.392350 0.209026 0.226523
v -0.226523 0.209026 0.392350
v -0.000000 0.209026 0.453047
v 0.226523 0.209026 0.392350
v 0.392350 0.209026 0.226523
v 0.453047 0.209026 0.000000
v 1.366275 0.202890 0.788820
v 0.788819 0.202890 1.366276
v -0.000000 0.202890 1.577639
v -0.788820 0.202890 1.366276
v -1.366275 0.202890 0.788820
v -1.577639 0.202890 0.000000
v -1.366275 0.202890 -0.788820
v -0.788820 0.202890 -1.366276
v -0.000000 0.202890 -1.577639
v 0.788819 0.202890 -1.366276
v 1.366275 0.202890 -0.788820
v 1.577639 0.202890 0.000000
v 0.613673 0.319074 1.062913
v -0.000000 0.319074 1.227347
v -0.613673 0.319074 1.062913
v -1.062913 0.319074 0.613674
v -1.227347 0.319074 0.000000
v -1.062913 0.319074 -0.613674
v -0.613673 0.319074 -1.062914
v -0.000000 0.319074 -1.227347
v 0.613673 0.319074 -1.062914
v 1.062914 0.319074 -0.613674
v 1.227347 0.319074 0.000000
v 1.062914 0.319074 0.613674
v 0.000000 0.190545 -0.000000
v -0.000000 0.000752 0.000000
vt 0.464767 0.374127
vt 0.373960 0.464934
vt 0.356925 0.435428
vt 0.435261 0.357092
vt 0.249915 0.498171
vt 0.249915 0.464101
vt 0.341523 0.408752
vt 0.408585 0.341690
vt 0.498005 0.250082
vt 0.463935 0.250082
vt 0.125870 0.464934
vt 0.142905 0.435428
vt 0.249915 0.433298
vt 0.336823 0.400611
vt 0.400444 0.336990
vt 0.433131 0.250082
vt 0.464767 0.126037
vt 0.435261 0.143072
vt 0.035063 0.374127
vt 0.064568 0.357092
vt 0.158307 0.408752
vt 0.249915 0.423898
vt 0.330986 0.390500
vt 0.390333 0.331152
vt 0.423731 0.250082
vt 0.408585 0.158473
vt 0.373960 0.035230
vt 0.356925 0.064735
vt 0.001825 0.250082
vt 0.035895 0.250082
vt 0.091245 0.341690
vt 0.163007 0.400611
vt 0.249915 0.412223
vt 0.307377 0.349609
vt 0.349443 0.307544
vt 0.412056 0.250082
vt 0.400444 0.163174
vt 0.341523 0.091412
vt 0.249915 0.001992
vt 0.249915 0.036062
vt 0.035063 0.126037
vt 0.064568 0.143072
vt 0.066698 0.250082
vt 0.099386 0.336990
vt 0.168844 0.390500
vt 0.249915 0.365006
vt 0.279840 0.301914
vt 0.301747 0.280007
vt 0.364840 0.250082
vt 0.390333 0.169011
vt 0.336823 0.099553
vt 0.249915 0.066865
vt 0.125870 0.035230
vt 0.142905 0.064735
vt 0.091245 0.158473
vt 0.076099 0.250082
vt 0.109496 0.331152
vt 0.192453 0.349609
vt 0.249915 0.309932
vt 0.249915 0.250082
vt 0.309766 0.250082
vt 0.349443 0.192619
vt 0.330986 0.109663
vt 0.249915 0.076266
vt 0.158307 0.091412
vt 0.099386 0.163174
vt 0.087774 0.250082
vt 0.150387 0.307544
vt 0.219990 0.301914
vt 0.301747 0.220156
vt 0.307377 0.150554
vt 0.249915 0.087940
vt 0.163007 0.099553
vt 0.109496 0.169011
vt 0.134990 0.250082
vt 0.198083 0.280007
vt 0.279840 0.198249
vt 0.249915 0.135157
vt 0.168844 0.109663
vt 0.150387 0.192619
vt 0.190064 0.250082
vt 0.249915 0.190231
vt 0.192453 0.150554
vt 0.198083 0.220156
vt 0.219990 0.198249
vt 0.081191 0.446571
vt 0.086291 0.465604
vt 0.048224 0.465604
vt 0.081191 0.484637
vt 0.067258 0.432637
vt 0.067258 0.498571
vt 0.048224 0.427538
vt 0.048224 0.503671
vt 0.029191 0.432637
vt 0.029191 0.498571
vt 0.015258 0.446571
vt 0.015258 0.484637
vt 0.010158 0.465604
vn 0.412924 0.879010 -0.238402
vn 0.238402 0.879010 -0.412924
vn 0.289321 0.815582 -0.501118
vn 0.501118 0.815582 -0.289321
vn 0.000000 0.879010 -0.476804
vn 0.000000 0.815582 -0.578641
vn -0.238402 0.879010 -0.412924
vn -0.289321 0.815582 -0.501118
vn -0.412924 0.879010 -0.238402
vn -0.501118 0.815582 -0.289321
vn -0.476804 0.879010 -0.000000
vn -0.578642 0.815582 0.000000
vn -0.412924 0.879010 0.238402
vn -0.501118 0.815582 0.289321
vn -0.238402 0.879010 0.412925
vn -0.289321 0.815582 0.501118
vn 0.000000 0.879010 0.476804
vn 0.000000 0.815582 0.578641
vn 0.238402 0.879009 0.412925
vn 0.289321 0.815582 0.501118
vn 0.412924 0.879010 0.238402
vn 0.501118 0.815582 0.289321
vn 0.476804 0.879010 -0.000000
vn 0.578642 0.815582 -0.000000
vn 0.455644 0.850403 -0.263066
vn 0.263066 0.850403 -0.455644
vn 0.181792 0.931562 -0.314873
vn 0.314872 0.931562 -0.181792
vn 0.000000 0.850403 -0.526132
vn 0.000000 0.931562 -0.363584
vn -0.263066 0.850403 -0.455644
vn -0.181792 0.931562 -0.314872
vn -0.455644 0.850403 -0.263066
vn -0.314872 0.931562 -0.181792
vn -0.526132 0.850403 -0.000000
vn -0.363583 0.931562 -0.000000
vn -0.455644 0.850403 0.263066
vn -0.314872 0.931562 0.181792
vn -0.263066 0.850403 0.455644
vn -0.181792 0.931562 0.314872
vn 0.000000 0.850403 0.526132
vn 0.000000 0.931562 0.363583
vn 0.263066 0.850403 0.455644
vn 0.181792 0.931562 0.314872
vn 0.455644 0.850403 0.263066
vn 0.314873 0.931562 0.181792
vn 0.526132 0.850403 -0.000000
vn 0.363583 0.931562 0.000000
vn -0.455643 0.850404 0.263065
vn -0.263066 0.850403 0.455643
vn -0.176303 0.935772 0.305365
vn -0.305365 0.935772 0.176303
vn 0.000000 0.850403 0.526132
vn 0.000000 0.935772 0.352605
vn 0.263066 0.850403 0.455643
vn 0.176303 0.935772 0.305365
vn 0.455643 0.850404 0.263065
vn 0.305365 0.935772 0.176303
vn 0.526131 0.850403 0.000000
vn 0.352605 0.935772 -0.000000
vn 0.455643 0.850404 -0.263065
vn 0.305365 0.935772 -0.176302
vn 0.263065 0.850404 -0.455643
vn 0.176303 0.935772 -0.305365
vn 0.000000 0.850403 -0.526132
vn 0.000000 0.935772 -0.352605
vn -0.263066 0.850403 -0.455643
vn -0.176303 0.935772 -0.305365
vn -0.455643 0.850404 -0.263065
vn -0.305365 0.935772 -0.176302
vn -0.526131 0.850404 0.000000
vn -0.352605 0.935772 0.000000
vn -0.123446 0.989789 0.071272
vn -0.071272 0.989789 0.123446
vn -0.039568 0.996864 0.068535
vn -0.068535 0.996864 0.039568
vn 0.000000 0.989789 0.142543
vn 0.000000 0.996864 0.079137
vn 0.071272 0.989789 0.123446
vn 0.039568 0.996864 0.068534
vn 0.123446 0.989789 0.071272
vn 0.068534 0.996864 0.039568
vn 0.142543 0.989789 -0.000000
vn 0.079137 0.996864 0.000000
vn 0.123446 0.989789 -0.071272
vn 0.068534 0.996864 -0.039568
vn 0.071272 0.989789 -0.123446
vn 0.039568 0.996864 -0.068534
vn 0.000000 0.989789 -0.142543
vn 0.000000 0.996864 -0.079137
vn -0.071272 0.989789 -0.123446
vn -0.039568 0.996864 -0.068535
vn -0.123446 0.989789 -0.071272
vn -0.068534 0.996864 -0.039568
vn -0.142543 0.989789 0.000000
vn -0.079137 0.996864 -0.000000
vn 0.000000 1.000000 0.000000
vn 0.000000 -1.000000 -0.000000
vn 0.000000 -1.000000 0.000000
vn 0.000000 -1.000000 -0.000000
vn 0.000000 -1.000000 0.000000
vn 0.000000 -1.000000 0.000000
vn 0.000000 -1.000000 0.000000
vn 0.000000 -1.000000 0.000000
vn 0.000000 -1.000000 0.000000
vn 0.000000 -1.000000 0.000000
vn 0.000000 -1.000000 0.000000
vn 0.000000 -1.000000 0.000000
vn 0.000000 -1.000000 0.000000
vn 0.000000 -1.000000 -0.000000
s 1
g Crater1
usemtl lambert3SG
f 1/1/1 2/2/2 70/3/3 71/4/4
f 2/2/2 3/5/5 69/6/6 70/3/3
f 3/5/5 4/11/7 68/12/8 69/6/6
f 4/11/7 5/19/9 67/20/10 68/12/8
f 5/19/9 6/29/11 66/30/12 67/20/10
f 6/29/11 7/41/13 65/42/14 66/30/12
f 7/41/13 8/53/15 64/54/16 65/42/14
f 8/53/15 9/39/17 63/40/18 64/54/16
f 9/39/17 10/27/19 62/28/20 63/40/18
f 10/27/19 11/17/21 61/18/22 62/28/20
f 11/17/21 12/9/23 72/10/24 61/18/22
f 12/9/23 1/1/1 71/4/4 72/10/24
f 13/8/25 14/7/26 26/14/27 25/15/28
f 14/7/26 15/13/29 27/22/30 26/14/27
f 15/13/29 16/21/31 28/32/32 27/22/30
f 16/21/31 17/31/33 29/44/34 28/32/32
f 17/31/33 18/43/35 30/56/36 29/44/34
f 18/43/35 19/55/37 31/66/38 30/56/36
f 19/55/37 20/65/39 32/73/40 31/66/38
f 20/65/39 21/52/41 33/64/42 32/73/40
f 21/52/41 22/38/43 34/51/44 33/64/42
f 22/38/43 23/26/45 35/37/46 34/51/44
f 23/26/45 24/16/47 36/25/48 35/37/46
f 24/16/47 13/8/25 25/15/28 36/25/48
s 2
f 25/15/49 26/14/50 81/23/51 82/24/52
f 26/14/50 27/22/53 80/33/54 81/23/51
f 27/22/53 28/32/55 79/45/56 80/33/54
f 28/32/55 29/44/57 78/57/58 79/45/56
f 29/44/57 30/56/59 77/67/60 78/57/58
f 30/56/59 31/66/61 76/74/62 77/67/60
f 31/66/61 32/73/63 75/79/64 76/74/62
f 32/73/63 33/64/65 74/72/66 75/79/64
f 33/64/65 34/51/67 73/63/68 74/72/66
f 34/51/67 35/37/69 84/50/70 73/63/68
f 35/37/69 36/25/71 83/36/72 84/50/70
f 36/25/71 25/15/49 82/24/52 83/36/72
f 37/35/73 38/34/74 50/47/75 49/48/76
f 38/34/74 39/46/77 51/59/78 50/47/75
f 39/46/77 40/58/79 52/69/80 51/59/78
f 40/58/79 41/68/81 53/76/82 52/69/80
f 41/68/81 42/75/83 54/81/84 53/76/82
f 42/75/83 43/80/85 55/84/86 54/81/84
f 43/80/85 44/83/87 56/85/88 55/84/86
f 44/83/87 45/78/89 57/82/90 56/85/88
f 45/78/89 46/71/91 58/77/92 57/82/90
f 46/71/91 47/62/93 59/70/94 58/77/92
f 47/62/93 48/49/95 60/61/96 59/70/94
f 48/49/95 37/35/73 49/48/76 60/61/96
s 1
f 62/28/20 61/18/22 23/26/45 22/38/43
f 63/40/18 62/28/20 22/38/43 21/52/41
f 64/54/16 63/40/18 21/52/41 20/65/39
f 65/42/14 64/54/16 20/65/39 19/55/37
f 66/30/12 65/42/14 19/55/37 18/43/35
f 67/20/10 66/30/12 18/43/35 17/31/33
f 68/12/8 67/20/10 17/31/33 16/21/31
f 69/6/6 68/12/8 16/21/31 15/13/29
f 70/3/3 69/6/6 15/13/29 14/7/26
f 71/4/4 70/3/3 14/7/26 13/8/25
f 72/10/24 71/4/4 13/8/25 24/16/47
f 61/18/22 72/10/24 24/16/47 23/26/45
s 2
f 74/72/66 73/63/68 46/71/91 45/78/89
f 75/79/64 74/72/66 45/78/89 44/83/87
f 76/74/62 75/79/64 44/83/87 43/80/85
f 77/67/60 76/74/62 43/80/85 42/75/83
f 78/57/58 77/67/60 42/75/83 41/68/81
f 79/45/56 78/57/58 41/68/81 40/58/79
f 80/33/54 79/45/56 40/58/79 39/46/77
f 81/23/51 80/33/54 39/46/77 38/34/74
f 82/24/52 81/23/51 38/34/74 37/35/73
f 83/36/72 82/24/52 37/35/73 48/49/95
f 84/50/70 83/36/72 48/49/95 47/62/93
f 73/63/68 84/50/70 47/62/93 46/71/91
f 49/48/76 50/47/75 85/60/97
f 50/47/75 51/59/78 85/60/97
f 51/59/78 52/69/80 85/60/97
f 52/69/80 53/76/82 85/60/97
f 53/76/82 54/81/84 85/60/97
f 54/81/84 55/84/86 85/60/97
f 55/84/86 56/85/88 85/60/97
f 56/85/88 57/82/90 85/60/97
f 57/82/90 58/77/92 85/60/97
f 58/77/92 59/70/94 85/60/97
f 59/70/94 60/61/96 85/60/97
f 60/61/96 49/48/76 85/60/97
s 3
f 1/86/98 12/87/99 86/88/100
f 12/87/99 11/89/101 86/88/100
f 11/89/101 10/91/102 86/88/100
f 10/91/102 9/93/103 86/88/100
f 9/93/103 8/95/104 86/88/100
f 8/95/104 7/97/105 86/88/100
f 7/97/105 6/98/106 86/88/100
f 6/98/106 5/96/107 86/88/100
f 5/96/107 4/94/108 86/88/100
f 4/94/108 3/92/109 86/88/100
f 3/92/109 2/90/110 86/88/100
f 2/90/110 1/86/98 86/88/100